<?xml version="1.0" encoding="UTF-8"?>
<svg xmlns="http://www.w3.org/2000/svg" xmlns:xlink="http://www.w3.org/1999/xlink" width="30pt" height="30.000001pt" viewBox="0 0 30 30.000001" version="1.2">
<defs>
<filter id="alpha" filterUnits="objectBoundingBox" x="0%" y="0%" width="100%" height="100%">
  <feColorMatrix type="matrix" in="SourceGraphic" values="0 0 0 0 1 0 0 0 0 1 0 0 0 0 1 0 0 0 1 0"/>
</filter>
<mask id="mask0">
  <g filter="url(#alpha)">
<rect x="0" y="0" width="30" height="30.000001" style="fill:rgb(0%,0%,0%);fill-opacity:0.7098;stroke:none;"/>
  </g>
</mask>
<clipPath id="clip2">
  <path d="M 0.179688 0.523438 L 18.992188 0.523438 L 18.992188 19.335938 L 0.179688 19.335938 Z M 0.179688 0.523438 "/>
</clipPath>
<clipPath id="clip1">
  <rect x="0" y="0" width="19" height="20"/>
</clipPath>
<g id="surface5" clip-path="url(#clip1)">
<g clip-path="url(#clip2)" clip-rule="nonzero">
<path style=" stroke:none;fill-rule:nonzero;fill:rgb(25.099182%,43.919373%,95.689392%);fill-opacity:1;" d="M 0.269531 0.671875 L 18.761719 0.671875 L 18.761719 19.128906 Z M 0.269531 0.671875 "/>
</g>
</g>
<mask id="mask1">
  <g filter="url(#alpha)">
<rect x="0" y="0" width="30" height="30.000001" style="fill:rgb(0%,0%,0%);fill-opacity:0.7686;stroke:none;"/>
  </g>
</mask>
<clipPath id="clip4">
  <path d="M 1 0.804688 L 19.710938 0.804688 L 19.710938 19.386719 L 1 19.386719 Z M 1 0.804688 "/>
</clipPath>
<clipPath id="clip3">
  <rect x="0" y="0" width="20" height="20"/>
</clipPath>
<g id="surface8" clip-path="url(#clip3)">
<g clip-path="url(#clip4)" clip-rule="nonzero">
<path style=" stroke:none;fill-rule:nonzero;fill:rgb(5.488586%,14.118958%,19.219971%);fill-opacity:1;" d="M 1.085938 0.886719 L 19.582031 0.886719 L 19.582031 19.339844 Z M 1.085938 0.886719 "/>
</g>
</g>
<mask id="mask2">
  <g filter="url(#alpha)">
<rect x="0" y="0" width="30" height="30.000001" style="fill:rgb(0%,0%,0%);fill-opacity:0.8;stroke:none;"/>
  </g>
</mask>
<clipPath id="clip6">
  <path d="M 0.84375 1 L 19.425781 1 L 19.425781 19.671875 L 0.84375 19.671875 Z M 0.84375 1 "/>
</clipPath>
<clipPath id="clip5">
  <rect x="0" y="0" width="20" height="20"/>
</clipPath>
<g id="surface11" clip-path="url(#clip5)">
<g clip-path="url(#clip6)" clip-rule="nonzero">
<path style=" stroke:none;fill-rule:nonzero;fill:rgb(25.099182%,43.919373%,95.689392%);fill-opacity:1;" d="M 0.90625 1.097656 L 19.398438 1.097656 L 19.398438 19.554688 Z M 0.90625 1.097656 "/>
</g>
</g>
</defs>
<g id="surface1">
<use xlink:href="#surface5" transform="matrix(1,0,0,1,1,9)" mask="url(#mask0)"/>
<use xlink:href="#surface8" transform="matrix(1,0,0,1,4,5)" mask="url(#mask1)"/>
<use xlink:href="#surface11" transform="matrix(1,0,0,1,8,1)" mask="url(#mask2)"/>
</g>
</svg>
