<?xml version="1.0" encoding="UTF-8"?>
<svg xmlns="http://www.w3.org/2000/svg" xmlns:xlink="http://www.w3.org/1999/xlink" width="30pt" height="30.000001pt" viewBox="0 0 30 30.000001" version="1.2">
<defs>
<clipPath id="clip1">
  <path d="M 0.484375 10 L 20 10 L 20 29.03125 L 0.484375 29.03125 Z M 0.484375 10 "/>
</clipPath>
<filter id="alpha" filterUnits="objectBoundingBox" x="0%" y="0%" width="100%" height="100%">
  <feColorMatrix type="matrix" in="SourceGraphic" values="0 0 0 0 1 0 0 0 0 1 0 0 0 0 1 0 0 0 1 0"/>
</filter>
<mask id="mask0">
  <g filter="url(#alpha)">
<rect x="0" y="0" width="30" height="30.000001" style="fill:rgb(0%,0%,0%);fill-opacity:0.7098;stroke:none;"/>
  </g>
</mask>
<clipPath id="clip3">
  <path d="M 0.484375 0.453125 L 19 0.453125 L 19 19 L 0.484375 19 Z M 0.484375 0.453125 "/>
</clipPath>
<clipPath id="clip2">
  <rect x="0" y="0" width="20" height="20"/>
</clipPath>
<g id="surface5" clip-path="url(#clip2)">
<g clip-path="url(#clip3)" clip-rule="nonzero">
<path style=" stroke:none;fill-rule:nonzero;fill:rgb(25.099182%,43.919373%,95.689392%);fill-opacity:1;" d="M 0.484375 0.484375 L 18.976562 0.484375 L 18.976562 18.941406 Z M 0.484375 0.484375 "/>
</g>
</g>
<mask id="mask1">
  <g filter="url(#alpha)">
<rect x="0" y="0" width="30" height="30.000001" style="fill:rgb(0%,0%,0%);fill-opacity:0.7686;stroke:none;"/>
  </g>
</mask>
<clipPath id="clip5">
  <path d="M 0.199219 0.503906 L 19 0.503906 L 19 19.316406 L 0.199219 19.316406 Z M 0.199219 0.503906 "/>
</clipPath>
<clipPath id="clip4">
  <rect x="0" y="0" width="20" height="20"/>
</clipPath>
<g id="surface8" clip-path="url(#clip4)">
<g clip-path="url(#clip5)" clip-rule="nonzero">
<path style=" stroke:none;fill-rule:nonzero;fill:rgb(5.488586%,14.118958%,19.219971%);fill-opacity:1;" d="M 0.300781 0.699219 L 18.792969 0.699219 L 18.792969 19.15625 Z M 0.300781 0.699219 "/>
</g>
</g>
<mask id="mask2">
  <g filter="url(#alpha)">
<rect x="0" y="0" width="30" height="30.000001" style="fill:rgb(0%,0%,0%);fill-opacity:0.8;stroke:none;"/>
  </g>
</mask>
<clipPath id="clip7">
  <path d="M 1 0.785156 L 19.730469 0.785156 L 19.730469 19.367188 L 1 19.367188 Z M 1 0.785156 "/>
</clipPath>
<clipPath id="clip6">
  <rect x="0" y="0" width="20" height="20"/>
</clipPath>
<g id="surface11" clip-path="url(#clip6)">
<g clip-path="url(#clip7)" clip-rule="nonzero">
<path style=" stroke:none;fill-rule:nonzero;fill:rgb(25.099182%,43.919373%,95.689392%);fill-opacity:1;" d="M 1.121094 0.910156 L 19.613281 0.910156 L 19.613281 19.367188 Z M 1.121094 0.910156 "/>
</g>
</g>
</defs>
<g id="surface1">
<g clip-path="url(#clip1)" clip-rule="nonzero">
<use xlink:href="#surface5" transform="matrix(1,0,0,1,0,10)" mask="url(#mask0)"/>
</g>
<use xlink:href="#surface8" transform="matrix(1,0,0,1,4,6)" mask="url(#mask1)"/>
<use xlink:href="#surface11" transform="matrix(1,0,0,1,7,2)" mask="url(#mask2)"/>
</g>
</svg>
